PathFileType	4	(X/Y/Z)	pose_F01_0-76.trc
DataRate	CameraRate	NumFrames	NumMarkers	Units	OrigDataRate	OrigDataStartFrame	OrigNumFrames
30	30	4	21	m	30	0	76
Frame#	Time	CHip			RHip			RKnee			RAnkle			RBigToe			RSmallToe			RHeel			LHip			LKnee			LAnkle			LBigToe			LSmallToe			LHeel			Neck			Nose			RShoulder			RElbow			RWrist			LShoulder			LElbow			LWrist			
		X1	Y1	Z1	X2	Y2	Z2	X3	Y3	Z3	X4	Y4	Z4	X5	Y5	Z5	X6	Y6	Z6	X7	Y7	Z7	X8	Y8	Z8	X9	Y9	Z9	X10	Y10	Z10	X11	Y11	Z11	X12	Y12	Z12	X13	Y13	Z13	X14	Y14	Z14	X15	Y15	Z15	X16	Y16	Z16	X17	Y17	Z17	X18	Y18	Z18	X19	Y19	Z19	X20	Y20	Z20	X21	Y21	Z21	
0	0.0	-0.23285279974982884	1.8304825713003592	-0.5175477076766227	-0.2450352839192101	1.8286937738469653	-0.46866928464511015	-0.22949756766554733	1.7087950533122425	-0.48185376332947	-0.1740763825245004	1.6146015180786764	-0.5282399710639066	-0.194154794857106	1.58038182174228	-0.5474771785289501				-0.16249066567408332	1.604455395814315	-0.5269703433666084	-0.21747644085471005	1.835710256358152	-0.5778130106334378	-0.21751509872020172	1.7059019624980378	-0.5784354612767538	-0.20440498038318733	1.5706490625559963	-0.5797728861168485	-0.21562185788834318	1.5358449716076772	-0.6536611097960046	-0.20119901638305454	1.546860118946872	-0.665619177850476	-0.20839857177822327	1.5590117368672014	-0.5737203575226879	-0.2306390255432009	1.9858362436727877	-0.5330217426008476	-0.20268222380701742	2.0571993908314536	-0.638756785248946	-0.25293722163165183	1.9899376917434701	-0.47462884296015834	-0.2667408916550414	1.9182271763697551	-0.41958673788333284	-0.2637227247338769	1.889687986899687	-0.5003567627789249	-0.2012264029844389	1.9865201130270285	-0.5987289353725327	-0.19050928946048232	1.913583945841718	-0.605665978237795	-0.18338806382095224	1.861599393821605	-0.7090567100846921
1	0.03333333333333333	-0.23412401248035344	1.8293251822104548	-0.5117636885366984	-0.24832481938830422	1.826135003512836	-0.46041594209882886	-0.22949756766554733	1.7087950533122425	-0.48185376332947	-0.1740763825245004	1.6146015180786764	-0.5282399710639066	-0.194154794857106	1.58038182174228	-0.5474771785289501				-0.16249066567408332	1.604455395814315	-0.5269703433666084	-0.21787483511170377	1.833760907611784	-0.5687178061056307	-0.2172768244048963	1.702087792195611	-0.578332694501772	-0.20505879193977788	1.5717301984680878	-0.5833839808602872	-0.21638452602727098	1.5388031139353553	-0.6494509233720575	-0.20328519445167692	1.5489761038420398	-0.6640088277514484	-0.20692918973798208	1.5606708528150819	-0.5710802708841217	-0.22989632117845962	1.9882306559813931	-0.5305611485889904	-0.21063424007942808	2.0560668203809156	-0.6278310246932636	-0.25409485071000387	1.9909577793812396	-0.47027249537728505	-0.2698463594410076	1.9133675149265026	-0.4114374974152794	-0.2779247892766807	1.8711987793262375	-0.5001728845201234	-0.20149526875394658	1.9876443315416596	-0.5906547241926833	-0.18967066095052407	1.9133550851844368	-0.602234531123918	-0.18350021058467186	1.8591275759047383	-0.6880244772071414
2	0.06666666666666667	-0.23539522521087805	1.8281677931205504	-0.5059796693967741	-0.25161435485739836	1.8235762331787069	-0.45216259955254756	-0.22949756766554733	1.7087950533122425	-0.48185376332947	-0.1740763825245004	1.6146015180786764	-0.5282399710639066	-0.194154794857106	1.58038182174228	-0.5474771785289501				-0.16249066567408332	1.604455395814315	-0.5269703433666084	-0.2182732293686975	1.831811558865416	-0.5596226015778236	-0.21703855008959086	1.6982736218931842	-0.5782299277267903	-0.20571260349636844	1.5728113343801793	-0.5869950756037259	-0.2171471941661988	1.5417612562630334	-0.6452407369481103	-0.2053713725202993	1.5510920887372075	-0.6623984776524209	-0.2054598076977409	1.5623299687629624	-0.5684401842455555	-0.22915361681371835	1.9906250682899986	-0.5281005545771332	-0.21858625635183873	2.0549342499303775	-0.6169052641375812	-0.2552524797883559	1.9919778670190091	-0.46591614779441176	-0.2729518272269738	1.90850785348325	-0.403288256947226	-0.29212685381948444	1.852709571752788	-0.4999890062613219	-0.20176413452345426	1.9887685500562908	-0.5825805130128339	-0.18883203244056582	1.9131262245271554	-0.598803084010041	-0.1836123573483915	1.8566557579878715	-0.6669922443295908
3	0.1	-0.23239428423573572	1.827199927853963	-0.5047194962080602	-0.25046772762682074	1.8227925882742226	-0.44879836970634074	-0.22949756766554733	1.7087950533122425	-0.48185376332947	-0.1740763825245004	1.6146015180786764	-0.5282399710639066	-0.194154794857106	1.58038182174228	-0.5474771785289501				-0.16249066567408332	1.604455395814315	-0.5269703433666084	-0.21731356267638277	1.8314068100794525	-0.556431484054438	-0.2168506157254334	1.7027812304069594	-0.5787786589528421	-0.2093263565162455	1.5806202158998146	-0.5686453737602433	-0.22239444077759465	1.5456899648312763	-0.6360637073589626	-0.20926766664125665	1.5583064730380254	-0.6508931875059003	-0.2039904256574997	1.5639890847108429	-0.5658000976069893	-0.22823854334814864	1.988686105536015	-0.5243908099561934	-0.23024511695364674	2.0577655393401604	-0.6013404066945851	-0.25542577541570194	1.9885780249885943	-0.46530121209027875	-0.27219845012212135	1.9045946340860531	-0.40817464088316	-0.28780176051359013	1.839441651633577	-0.4552419827646289	-0.19905681409149711	1.9884645100407534	-0.5730340196553828	-0.18791862211032992	1.9122730233526466	-0.5957468136583758	-0.18469065137952922	1.8489737635099714	-0.6602763316445769
